<mxfile host="65bd71144e">
    <diagram id="HZ-KQJHCBMyUMtJh_XOQ" name="Page-1">
        <mxGraphModel dx="766" dy="1139" grid="1" gridSize="10" guides="1" tooltips="1" connect="1" arrows="1" fold="1" page="1" pageScale="1" pageWidth="850" pageHeight="1100" math="0" shadow="0">
            <root>
                <mxCell id="0"/>
                <mxCell id="1" parent="0"/>
                <mxCell id="35" value="" style="edgeStyle=none;html=1;" edge="1" parent="1" source="2" target="34">
                    <mxGeometry relative="1" as="geometry"/>
                </mxCell>
                <mxCell id="37" value="Επιλέγει" style="edgeLabel;html=1;align=center;verticalAlign=middle;resizable=0;points=[];" vertex="1" connectable="0" parent="35">
                    <mxGeometry x="-0.4" y="-2" relative="1" as="geometry">
                        <mxPoint x="2" y="-2" as="offset"/>
                    </mxGeometry>
                </mxCell>
                <mxCell id="2" value="Οδηγός Ταξί" style="shape=umlActor;verticalLabelPosition=bottom;verticalAlign=top;html=1;" vertex="1" parent="1">
                    <mxGeometry x="20" y="350" width="30" height="60" as="geometry"/>
                </mxCell>
                <mxCell id="6" style="edgeStyle=none;html=1;" edge="1" parent="1" source="3" target="5">
                    <mxGeometry relative="1" as="geometry"/>
                </mxCell>
                <mxCell id="3" value="Ενεργά αιτήματα" style="shape=umlBoundary;whiteSpace=wrap;html=1;" vertex="1" parent="1">
                    <mxGeometry x="200" y="470" width="100" height="80" as="geometry"/>
                </mxCell>
                <mxCell id="7" style="edgeStyle=none;html=1;" edge="1" parent="1" source="5">
                    <mxGeometry relative="1" as="geometry">
                        <mxPoint x="530" y="510" as="targetPoint"/>
                    </mxGeometry>
                </mxCell>
                <mxCell id="5" value="Αποδοχή Αιτήματος" style="ellipse;shape=umlControl;whiteSpace=wrap;html=1;" vertex="1" parent="1">
                    <mxGeometry x="370" y="470" width="70" height="80" as="geometry"/>
                </mxCell>
                <mxCell id="10" style="edgeStyle=none;html=1;entryX=0.5;entryY=1;entryDx=0;entryDy=0;" edge="1" parent="1" source="8">
                    <mxGeometry relative="1" as="geometry">
                        <mxPoint x="565" y="430" as="targetPoint"/>
                    </mxGeometry>
                </mxCell>
                <mxCell id="12" style="edgeStyle=none;html=1;entryX=0.514;entryY=0.075;entryDx=0;entryDy=0;entryPerimeter=0;" edge="1" parent="1" source="8" target="11">
                    <mxGeometry relative="1" as="geometry"/>
                </mxCell>
                <mxCell id="29" value="" style="edgeStyle=none;html=1;" edge="1" parent="1" source="8" target="28">
                    <mxGeometry relative="1" as="geometry"/>
                </mxCell>
                <mxCell id="30" value="Αδύναμια&amp;nbsp;&lt;br&gt;Ανάκτησης&lt;br&gt;τοποθεσίας" style="edgeLabel;html=1;align=center;verticalAlign=middle;resizable=0;points=[];" vertex="1" connectable="0" parent="29">
                    <mxGeometry x="-0.3333" relative="1" as="geometry">
                        <mxPoint x="3" as="offset"/>
                    </mxGeometry>
                </mxCell>
                <mxCell id="8" value="Ανάκτηση Τοποθεσίας" style="ellipse;shape=umlControl;whiteSpace=wrap;html=1;" vertex="1" parent="1">
                    <mxGeometry x="530" y="470" width="70" height="80" as="geometry"/>
                </mxCell>
                <mxCell id="14" value="" style="edgeStyle=none;html=1;" edge="1" parent="1" source="11" target="13">
                    <mxGeometry relative="1" as="geometry"/>
                </mxCell>
                <mxCell id="16" value="" style="edgeStyle=none;html=1;" edge="1" parent="1" source="11" target="15">
                    <mxGeometry relative="1" as="geometry"/>
                </mxCell>
                <mxCell id="32" value="" style="edgeStyle=none;html=1;" edge="1" parent="1" source="11" target="31">
                    <mxGeometry relative="1" as="geometry">
                        <Array as="points">
                            <mxPoint x="510" y="650"/>
                        </Array>
                    </mxGeometry>
                </mxCell>
                <mxCell id="33" value="Αδυναμία &lt;br&gt;Δέσμευσης&lt;br&gt;Αιτήματος&amp;nbsp;" style="edgeLabel;html=1;align=center;verticalAlign=middle;resizable=0;points=[];" vertex="1" connectable="0" parent="32">
                    <mxGeometry relative="1" as="geometry">
                        <mxPoint as="offset"/>
                    </mxGeometry>
                </mxCell>
                <mxCell id="11" value="Έλεγχος Αιτήματος" style="ellipse;shape=umlControl;whiteSpace=wrap;html=1;" vertex="1" parent="1">
                    <mxGeometry x="530" y="610" width="70" height="80" as="geometry"/>
                </mxCell>
                <mxCell id="13" value="Βάση Δεδομένων" style="ellipse;shape=umlEntity;whiteSpace=wrap;html=1;" vertex="1" parent="1">
                    <mxGeometry x="650" y="610" width="80" height="80" as="geometry"/>
                </mxCell>
                <mxCell id="17" style="edgeStyle=none;html=1;" edge="1" parent="1" source="15" target="13">
                    <mxGeometry relative="1" as="geometry"/>
                </mxCell>
                <mxCell id="19" value="" style="edgeStyle=none;html=1;" edge="1" parent="1" source="15" target="18">
                    <mxGeometry relative="1" as="geometry"/>
                </mxCell>
                <mxCell id="15" value="Ενημέρωση Αιτήματος" style="ellipse;shape=umlControl;whiteSpace=wrap;html=1;" vertex="1" parent="1">
                    <mxGeometry x="530" y="730" width="70" height="80" as="geometry"/>
                </mxCell>
                <mxCell id="21" value="" style="edgeStyle=none;html=1;" edge="1" parent="1" source="18" target="20">
                    <mxGeometry relative="1" as="geometry"/>
                </mxCell>
                <mxCell id="18" value="Εμφάνιση Οδηγιών για τοποθεσία πελάτη" style="ellipse;shape=umlControl;whiteSpace=wrap;html=1;" vertex="1" parent="1">
                    <mxGeometry x="530" y="860" width="70" height="80" as="geometry"/>
                </mxCell>
                <mxCell id="24" style="edgeStyle=none;html=1;entryX=0.5;entryY=0;entryDx=0;entryDy=0;" edge="1" parent="1" source="20">
                    <mxGeometry relative="1" as="geometry">
                        <mxPoint x="385" y="980" as="targetPoint"/>
                    </mxGeometry>
                </mxCell>
                <mxCell id="25" style="edgeStyle=none;html=1;entryX=0.425;entryY=-0.025;entryDx=0;entryDy=0;entryPerimeter=0;" edge="1" parent="1" source="20">
                    <mxGeometry relative="1" as="geometry">
                        <mxPoint x="494" y="978" as="targetPoint"/>
                    </mxGeometry>
                </mxCell>
                <mxCell id="27" value="" style="edgeStyle=none;html=1;" edge="1" parent="1" source="20" target="26">
                    <mxGeometry relative="1" as="geometry"/>
                </mxCell>
                <mxCell id="20" value="Υπολογισμός χρόνου Άφιξης" style="ellipse;shape=umlControl;whiteSpace=wrap;html=1;" vertex="1" parent="1">
                    <mxGeometry x="410" y="860" width="70" height="80" as="geometry"/>
                </mxCell>
                <mxCell id="26" value="Μήνυμα για αποδοχή αιτήματος στον πελάτη" style="ellipse;shape=umlControl;whiteSpace=wrap;html=1;" vertex="1" parent="1">
                    <mxGeometry x="260" y="860" width="70" height="80" as="geometry"/>
                </mxCell>
                <mxCell id="28" value="Μήνυμα Σφάλματος και Τερματισμός Λειτουργίας" style="ellipse;shape=umlControl;whiteSpace=wrap;html=1;" vertex="1" parent="1">
                    <mxGeometry x="680" y="470" width="70" height="80" as="geometry"/>
                </mxCell>
                <mxCell id="41" style="edgeStyle=none;html=1;entryX=0.88;entryY=0.9;entryDx=0;entryDy=0;entryPerimeter=0;" edge="1" parent="1" source="31" target="3">
                    <mxGeometry relative="1" as="geometry"/>
                </mxCell>
                <mxCell id="31" value="Ακλύρωση αποδοχής αιτήματος και μήνυμα λάθους" style="ellipse;shape=umlControl;whiteSpace=wrap;html=1;" vertex="1" parent="1">
                    <mxGeometry x="370" y="610" width="70" height="80" as="geometry"/>
                </mxCell>
                <mxCell id="39" style="edgeStyle=none;html=1;entryX=0.657;entryY=0.175;entryDx=0;entryDy=0;entryPerimeter=0;" edge="1" parent="1" source="34" target="38">
                    <mxGeometry relative="1" as="geometry"/>
                </mxCell>
                <mxCell id="34" value="&lt;br&gt;Εντοπισμός Αιτημάτων" style="shape=umlBoundary;whiteSpace=wrap;html=1;" vertex="1" parent="1">
                    <mxGeometry x="110" y="340" width="100" height="80" as="geometry"/>
                </mxCell>
                <mxCell id="40" style="edgeStyle=none;html=1;entryX=-0.04;entryY=0.513;entryDx=0;entryDy=0;entryPerimeter=0;" edge="1" parent="1" source="38" target="3">
                    <mxGeometry relative="1" as="geometry"/>
                </mxCell>
                <mxCell id="38" value="Εμφλανιση" style="ellipse;shape=umlControl;whiteSpace=wrap;html=1;" vertex="1" parent="1">
                    <mxGeometry x="70" y="470" width="70" height="80" as="geometry"/>
                </mxCell>
                <mxCell id="43" value="GPS Πελάτη" style="shape=umlActor;verticalLabelPosition=bottom;verticalAlign=top;html=1;" vertex="1" parent="1">
                    <mxGeometry x="480" y="980" width="30" height="60" as="geometry"/>
                </mxCell>
                <mxCell id="44" value="GPS οδηγού" style="shape=umlActor;verticalLabelPosition=bottom;verticalAlign=top;html=1;" vertex="1" parent="1">
                    <mxGeometry x="370" y="980" width="30" height="60" as="geometry"/>
                </mxCell>
                <mxCell id="45" value="GPS οδηγού" style="shape=umlActor;verticalLabelPosition=bottom;verticalAlign=top;html=1;" vertex="1" parent="1">
                    <mxGeometry x="550" y="360" width="30" height="60" as="geometry"/>
                </mxCell>
            </root>
        </mxGraphModel>
    </diagram>
</mxfile>